<?xml version="1.0" encoding="utf-8"?>
<!-- Generator: Adobe Illustrator 25.0.1, SVG Export Plug-In . SVG Version: 6.00 Build 0)  -->
<svg version="1.1" id="Layer_1" xmlns="http://www.w3.org/2000/svg" xmlns:xlink="http://www.w3.org/1999/xlink" x="0px" y="0px"
	 viewBox="0 0 24 24" style="enable-background:new 0 0 24 24;" xml:space="preserve">
<style type="text/css">
	.st0{fill:#372B2D;}
	.st1{opacity:0.5;fill:#372B2D;}
</style>
<path class="st0" d="M20,12c0,1.5-0.4,2.8-1.1,4l1.7,1c0.9-1.5,1.3-3.2,1.3-5c0-5.5-4.5-10-10-10v2C16.4,4,20,7.6,20,12z"/>
<path class="st1" d="M18.9,16c-1.4,2.4-4,4-6.9,4c-4.4,0-8-3.6-8-8c0-1.5,0.4-2.8,1.1-4C6.5,5.6,9,4,12,4V2C8.3,2,5.1,4,3.3,7
	C2.5,8.5,2,10.2,2,12c0,5.5,4.5,10,10,10c3.7,0,6.9-2,8.7-5L18.9,16z"/>
</svg>
